#N canvas 400 200 330 300 16;
#X obj 120 250 dac~;
#X obj 120 60 metro 500;
#X obj 120 90 f;
#X obj 160 90 + 1;
#X obj 50 200 *~ 0.05;
#X obj 120 120 s toZig;
#N canvas 730 200 360 320 tone 0;
#X obj 50 200 *~;
#X obj 50 110 phasor~ 200;
#X obj 50 140 -~ 0.5;
#X obj 180 140 vline~;
#X msg 180 110 1 50 \, 0 500 50;
#X obj 50 170 *~ 2;
#X obj 50 20 r \$0tone;
#X obj 50 50 t f b;
#X obj 50 270 outlet~;
#X obj 50 80 mtof;
#X obj 180 200 pan;
#X obj 180 170 r \$0pan;
#X obj 140 270 outlet~;
#X obj 50 240 *~ 1;
#X obj 140 240 *~ 1;
#X connect 0 0 13 0;
#X connect 0 0 14 0;
#X connect 1 0 2 0;
#X connect 2 0 5 0;
#X connect 3 0 0 1;
#X connect 4 0 3 0;
#X connect 5 0 0 0;
#X connect 6 0 7 0;
#X connect 7 0 9 0;
#X connect 7 1 4 0;
#X connect 9 0 1 0;
#X connect 10 0 13 1;
#X connect 10 1 14 1;
#X connect 11 0 10 0;
#X connect 13 0 8 0;
#X connect 14 0 12 0;
#X restore 200 170 pd tone;
#N canvas 730 200 330 330 fm 0;
#X obj 50 210 +~ 400;
#X obj 220 30 loadbang;
#X obj 50 30 r \$0freq;
#X obj 140 30 r \$0idx;
#X obj 50 180 *~;
#X msg 70 80 now 1;
#X msg 160 80 now 150;
#X obj 50 140 osc~;
#X obj 50 240 osc~;
#X obj 50 110 zp~ 35;
#X obj 140 110 zp~ 35;
#X obj 130 210 r \$0car;
#X obj 50 270 outlet~;
#X connect 0 0 8 0;
#X connect 1 0 5 0;
#X connect 1 0 6 0;
#X connect 2 0 9 0;
#X connect 3 0 10 0;
#X connect 4 0 0 0;
#X connect 5 0 9 0;
#X connect 6 0 10 0;
#X connect 7 0 4 0;
#X connect 8 0 12 0;
#X connect 9 0 7 0;
#X connect 10 0 4 1;
#X connect 11 0 0 1;
#X restore 50 170 pd fm;
#X obj 120 30 loadbang;
#X obj 150 200 *~ 0.1;
#X obj 220 200 *~ 0.1;
#X connect 1 0 2 0;
#X connect 2 0 3 0;
#X connect 2 0 5 0;
#X connect 3 0 2 1;
#X connect 4 0 0 0;
#X connect 4 0 0 1;
#X connect 6 0 9 0;
#X connect 6 1 10 0;
#X connect 7 0 4 0;
#X connect 8 0 1 0;
#X connect 9 0 0 0;
#X connect 10 0 0 1;
